<svg xmlns="http://www.w3.org/2000/svg" width="15" height="17" fill="none"><circle cx="7.5" cy="9.5" r="7" stroke="#fff"/><path fill="#fff" d="M7.363 12.227c.258 0 .496-.053.715-.159.219-.105.399-.25.54-.433.14-.188.22-.4.24-.639h1.03c-.019.375-.146.725-.38 1.049a2.6 2.6 0 0 1-.908.78 2.636 2.636 0 0 1-1.237.292c-.476 0-.892-.084-1.248-.252a2.473 2.473 0 0 1-.879-.691 3.088 3.088 0 0 1-.521-1.008 4.253 4.253 0 0 1-.17-1.213v-.246c0-.426.057-.828.17-1.207a3.08 3.08 0 0 1 .521-1.014c.235-.293.528-.523.88-.691.355-.168.77-.252 1.247-.252.496 0 .93.102 1.301.305.371.199.662.472.873.82.215.344.332.734.352 1.172H8.857a1.562 1.562 0 0 0-.222-.71 1.388 1.388 0 0 0-.516-.503 1.441 1.441 0 0 0-.756-.193c-.332 0-.611.066-.838.199-.222.129-.4.304-.533.527a2.462 2.462 0 0 0-.281.733 4.028 4.028 0 0 0-.082.814v.246c0 .277.027.55.082.82.055.27.146.514.275.733.133.219.31.394.534.527.226.13.507.194.843.194Z"/></svg>