<svg xmlns="http://www.w3.org/2000/svg" width="22" height="18" fill="none"><path fill="url(#a)" d="M21.16 2.656a8.383 8.383 0 0 1-2.402.658A4.195 4.195 0 0 0 20.598 1c-.82.488-1.719.83-2.656 1.015a4.182 4.182 0 0 0-7.126 3.814 11.874 11.874 0 0 1-8.62-4.37 4.168 4.168 0 0 0-.566 2.103c0 1.45.738 2.73 1.86 3.48a4.168 4.168 0 0 1-1.894-.522v.052a4.185 4.185 0 0 0 3.355 4.1 4.208 4.208 0 0 1-1.89.073 4.185 4.185 0 0 0 3.907 2.905 8.393 8.393 0 0 1-6.19 1.732 11.83 11.83 0 0 0 6.41 1.88c7.692 0 11.9-6.373 11.9-11.9 0-.18-.006-.362-.014-.54a8.495 8.495 0 0 0 2.087-2.165v-.001Z"/><defs><linearGradient id="a" x1=".777" x2="15.744" y1="8.975" y2="1.539" gradientUnits="userSpaceOnUse"><stop stop-color="#FF62B7"/><stop offset="1" stop-color="#9F53FF"/></linearGradient></defs></svg>