<svg aria-hidden="true" style="position: absolute; width: 0; height: 0; overflow: hidden;" version="1.1" xmlns="http://www.w3.org/2000/svg" xmlns:xlink="http://www.w3.org/1999/xlink">
<defs>
<symbol id="icon-copyright" viewBox="0 0 28 32">
<path fill="none" stroke="#fff" style="stroke: var(--color1, #fff)" stroke-linejoin="miter" stroke-linecap="butt" stroke-miterlimit="4" stroke-width="1.8824" d="M27.294 17.882c0 7.277-5.899 13.176-13.176 13.176s-13.176-5.899-13.176-13.176c0-7.277 5.899-13.176 13.176-13.176s13.176 5.899 13.176 13.176z"></path>
<path fill="#fff" style="fill: var(--color1, #fff)" d="M13.86 23.016c0.486 0 0.934-0.1 1.346-0.299 0.412-0.198 0.751-0.471 1.016-0.815 0.264-0.354 0.414-0.753 0.452-1.203h1.939c-0.036 0.706-0.275 1.365-0.715 1.975-0.449 0.612-1.021 1.107-1.682 1.455l-0.027 0.013c-0.66 0.347-1.441 0.55-2.271 0.55-0.020 0-0.041-0-0.061-0l0.003 0c-0.896 0-1.679-0.158-2.349-0.474-0.66-0.314-1.212-0.753-1.648-1.292l-0.007-0.009c-0.423-0.539-0.758-1.17-0.97-1.856l-0.011-0.041c-0.203-0.671-0.32-1.443-0.32-2.241 0-0.015 0-0.030 0-0.044v0.002-0.463c0-0.802 0.107-1.559 0.32-2.272 0.221-0.731 0.556-1.367 0.99-1.921l-0.010 0.013c0.442-0.552 0.994-0.984 1.656-1.301 0.668-0.316 1.449-0.474 2.347-0.474 0.934 0 1.751 0.192 2.449 0.574 0.698 0.375 1.246 0.888 1.643 1.544 0.405 0.648 0.625 1.382 0.663 2.206h-1.943c-0.032-0.498-0.183-0.954-0.425-1.349l0.007 0.013c-0.238-0.397-0.567-0.718-0.958-0.94l-0.013-0.007c-0.389-0.229-0.858-0.364-1.357-0.364-0.023 0-0.046 0-0.069 0.001l0.003-0c-0.625 0-1.15 0.124-1.577 0.375-0.418 0.243-0.753 0.572-1.003 0.992-0.235 0.398-0.418 0.859-0.523 1.349l-0.005 0.030c-0.098 0.458-0.154 0.983-0.154 1.522 0 0.004 0 0.007 0 0.011v-0.001 0.463c0 0.521 0.051 1.035 0.154 1.544s0.275 0.968 0.518 1.38c0.25 0.412 0.584 0.742 1.005 0.992 0.425 0.245 0.954 0.365 1.587 0.365z"></path>
</symbol>
<symbol id="icon-insta" viewBox="0 0 32 32">
<path d="M16 11.2c-2.651 0-4.8 2.149-4.8 4.8s2.149 4.8 4.8 4.8v0c2.651 0 4.8-2.149 4.8-4.8s-2.149-4.8-4.8-4.8v0zM16 8c4.418 0 8 3.582 8 8s-3.582 8-8 8v0c-4.418 0-8-3.582-8-8s3.582-8 8-8v0zM26.4 7.6c0 1.105-0.895 2-2 2s-2-0.895-2-2v0c0-1.105 0.895-2 2-2s2 0.895 2 2v0zM16 3.2c-3.958 0-4.605 0.011-6.446 0.093-1.254 0.059-2.096 0.227-2.877 0.531-0.678 0.253-1.256 0.637-1.727 1.124l-0.001 0.001c-0.489 0.472-0.873 1.050-1.116 1.696l-0.011 0.032c-0.304 0.784-0.472 1.624-0.53 2.877-0.083 1.766-0.093 2.384-0.093 6.446 0 3.958 0.011 4.605 0.093 6.446 0.059 1.253 0.227 2.096 0.53 2.875 0.272 0.696 0.592 1.197 1.123 1.728 0.539 0.538 1.040 0.859 1.728 1.125 0.79 0.306 1.632 0.475 2.88 0.533 1.766 0.083 2.384 0.093 6.446 0.093 3.958 0 4.605-0.011 6.446-0.093 1.251-0.059 2.094-0.227 2.875-0.53 0.677-0.255 1.254-0.637 1.727-1.122l0.001-0.001c0.539-0.539 0.861-1.040 1.126-1.728 0.304-0.789 0.474-1.632 0.531-2.88 0.083-1.766 0.093-2.384 0.093-6.446 0-3.958-0.011-4.605-0.093-6.446-0.059-1.251-0.227-2.096-0.531-2.877-0.255-0.678-0.638-1.255-1.124-1.727l-0.001-0.001c-0.472-0.489-1.050-0.873-1.696-1.116l-0.032-0.010c-0.784-0.304-1.626-0.472-2.877-0.53-1.766-0.083-2.384-0.093-6.446-0.093zM16 0c4.347 0 4.89 0.016 6.595 0.096 1.704 0.080 2.864 0.347 3.885 0.744 1.056 0.406 1.946 0.957 2.835 1.845 0.814 0.8 1.443 1.768 1.845 2.835 0.395 1.019 0.664 2.181 0.744 3.885 0.075 1.706 0.096 2.248 0.096 6.595s-0.016 4.89-0.096 6.595c-0.080 1.704-0.349 2.864-0.744 3.885-0.423 1.11-1.051 2.056-1.844 2.834l-0.001 0.001c-0.8 0.813-1.768 1.443-2.835 1.845-1.019 0.395-2.181 0.664-3.885 0.744-1.706 0.075-2.248 0.096-6.595 0.096s-4.89-0.016-6.595-0.096c-1.704-0.080-2.864-0.349-3.885-0.744-1.11-0.423-2.056-1.051-2.834-1.844l-0.001-0.001c-0.793-0.78-1.421-1.726-1.827-2.782l-0.018-0.054c-0.397-1.019-0.664-2.181-0.744-3.885-0.075-1.706-0.096-2.248-0.096-6.595s0.016-4.89 0.096-6.595c0.080-1.706 0.347-2.864 0.744-3.885 0.423-1.11 1.051-2.056 1.844-2.834l0.001-0.001c0.78-0.794 1.726-1.421 2.782-1.827l0.054-0.018c1.021-0.397 2.179-0.664 3.885-0.744 1.706-0.075 2.248-0.096 6.595-0.096z"></path>
</symbol>
<symbol id="icon-linkedin" viewBox="0 0 36 32">
<path d="M8.784 3.556c-0.001 1.963-1.593 3.554-3.556 3.554s-3.556-1.592-3.556-3.556c0-0.001 0-0.001 0-0.002v0c0.001-1.963 1.592-3.554 3.556-3.554s3.556 1.592 3.556 3.556c0 0.001 0 0.001 0 0.002v-0zM8.891 9.742h-7.111v22.258h7.111v-22.258zM20.126 9.742h-7.076v22.258h7.004v-11.68c0-6.507 8.48-7.111 8.48 0v11.68h7.022v-14.098c0-10.969-12.551-10.56-15.502-5.173l0.071-2.987z"></path>
</symbol>
<symbol id="icon-telegram" viewBox="0 0 32 32">
<path d="M1.406 11.23c-0.777-0.312-0.768-0.777 0.052-1.050l29.083-9.694c0.806-0.268 1.268 0.183 1.042 0.972l-8.311 29.083c-0.229 0.806-0.724 0.843-1.093 0.107l-6.942-13.886-13.832-5.531zM8.858 10.926l8.588 3.436 4.632 9.268 5.403-18.91-18.624 6.206z"></path>
</symbol>
<symbol id="icon-twitter" viewBox="0 0 39 32">
<path d="M37.618 4.722c-1.243 0.566-2.686 0.977-4.198 1.163l-0.072 0.007c1.538-0.931 2.695-2.361 3.256-4.061l0.015-0.053c-1.458 0.868-3.056 1.476-4.722 1.804-1.36-1.453-3.29-2.358-5.432-2.358-4.106 0-7.435 3.329-7.435 7.435 0 0.604 0.072 1.192 0.208 1.755l-0.010-0.051c-6.194-0.32-11.642-3.263-15.295-7.731l-0.030-0.038c-0.632 1.068-1.006 2.355-1.006 3.728 0 0.004 0 0.007 0 0.011v-0.001c0 2.578 1.312 4.853 3.307 6.187-1.242-0.040-2.396-0.379-3.404-0.947l0.037 0.019v0.092c0.002 3.585 2.539 6.578 5.916 7.28l0.048 0.008c-0.588 0.166-1.264 0.262-1.961 0.262-0.495 0-0.978-0.048-1.446-0.14l0.047 0.008c0.977 2.978 3.706 5.102 6.939 5.164l0.007 0c-2.511 1.986-5.724 3.187-9.216 3.187-0.63 0-1.251-0.039-1.861-0.115l0.073 0.007c3.215 2.096 7.15 3.342 11.376 3.342 0.007 0 0.014 0 0.021 0h-0.001c13.675 0 21.156-11.33 21.156-21.156 0-0.32-0.011-0.644-0.025-0.96 1.461-1.064 2.692-2.339 3.676-3.795l0.034-0.053v-0.002z"></path>
</symbol>
<symbol id="icon-vector-big" viewBox="0 0 60 32">
<path fill="none" stroke="#fff" style="stroke: var(--color1, #fff)" stroke-linejoin="miter" stroke-linecap="butt" stroke-miterlimit="4" stroke-width="2.3704" d="M0.593 16.593h59.259M41.481 1.185c2.963 5.135 10.667 15.407 17.778 15.407M41.481 30.815c2.963-4.741 10.667-14.222 17.778-14.222"></path>
</symbol>
<symbol id="icon-vector-purple" viewBox="0 0 46 32">
<path d="M45.406 17.414c0.362-0.362 0.586-0.862 0.586-1.414s-0.224-1.052-0.586-1.414l-12.726-12.728c-0.364-0.377-0.874-0.611-1.439-0.611-1.105 0-2 0.895-2 2 0 0.565 0.234 1.074 0.61 1.438l0.001 0.001 11.312 11.314-11.314 11.314c-0.347 0.359-0.561 0.849-0.561 1.389 0 1.105 0.895 2 2 2 0.54 0 1.030-0.214 1.39-0.562l-0.001 0.001 12.728-12.728zM0 18h43.992v-4h-43.992v4z"></path>
</symbol>
<symbol id="icon-vector-small" viewBox="0 0 41 32">
<path fill="none" stroke="#fff" style="stroke: var(--color1, #fff)" stroke-linejoin="miter" stroke-linecap="butt" stroke-miterlimit="4" stroke-width="2.6667" d="M0.667 17.333h40M22 1.333c3.111 5.333 11.2 16 18.667 16M22 30.667c3.111-4.444 11.2-13.333 18.667-13.333"></path>
</symbol>
</defs>
</svg>
